<?xml version="1.0" standalone="no"?>
<!DOCTYPE svg PUBLIC "-//W3C//DTD SVG 20010904//EN"
 "http://www.w3.org/TR/2001/REC-SVG-20010904/DTD/svg10.dtd">
<svg version="1.0" xmlns="http://www.w3.org/2000/svg"
 width="688.000000pt" height="250.000000pt" viewBox="0 0 688.000000 250.000000"
 preserveAspectRatio="xMidYMid meet">

<g transform="translate(0.000000,250.000000) scale(0.100000,-0.100000)"
fill="#000000" stroke="none">
<path d="M845 2489 c-180 -31 -242 -53 -232 -83 4 -12 12 -13 177 -17 63 -1
111 -3 105 -4 -54 -13 -165 -50 -184 -62 -19 -12 -39 -14 -95 -8 -121 14 -229
13 -286 -2 -49 -13 -80 -34 -80 -53 0 -4 39 -10 87 -13 108 -8 154 -17 147
-28 -3 -5 -18 -9 -33 -9 -39 0 -213 -39 -228 -51 -7 -6 -15 -19 -18 -28 -4
-14 -21 -19 -76 -24 -75 -6 -119 -26 -119 -55 0 -13 9 -17 42 -17 24 0 84 -2
133 -3 l90 -3 -40 -19 c-22 -11 -53 -19 -68 -20 -27 0 -77 -39 -77 -60 0 -6
47 -10 133 -11 101 0 125 -3 105 -11 -16 -5 -29 -16 -29 -24 -1 -8 -2 -19 -3
-25 -1 -7 41 -11 118 -11 93 -1 124 -5 139 -17 106 -85 114 -107 40 -98 l-48
5 24 -19 c24 -20 48 -23 98 -13 l30 6 -28 51 c-16 30 -41 58 -61 69 l-33 19
63 -4 c54 -3 62 -1 62 15 0 29 -56 50 -136 51 -68 0 -71 1 -61 19 10 15 22 19
62 16 40 -2 51 1 53 15 2 9 9 17 15 18 7 0 3 4 -8 9 -15 7 -9 9 25 7 42 -1 45
0 45 23 0 35 -37 50 -126 50 -69 0 -77 2 -82 21 -5 19 -2 20 60 18 41 -2 67 2
72 9 4 7 33 13 67 13 32 1 62 7 66 13 4 6 35 9 81 7 46 -1 77 1 81 8 4 6 26
11 49 11 53 0 88 10 81 21 -3 5 20 9 51 9 51 0 91 13 106 34 4 5 24 5 44 2 36
-7 37 -7 31 18 -6 23 -3 26 19 26 14 0 28 7 31 15 4 8 14 15 23 15 13 0 17 -7
13 -28 -4 -27 -3 -27 45 -24 47 3 48 3 27 -15 -11 -10 -20 -25 -20 -33 1 -15
6 -16 81 -20 22 -1 34 -4 28 -7 -7 -2 -13 -10 -13 -17 0 -18 -37 -33 -94 -40
-62 -8 -100 -26 -104 -51 -3 -23 -27 -21 263 -25 125 -1 191 2 193 8 2 6 10 8
18 5 9 -3 14 1 14 12 0 17 18 17 64 -1 11 -4 16 0 16 13 0 18 9 21 68 26 37 3
78 5 92 4 14 -1 33 6 43 16 17 17 34 18 178 15 142 -3 159 -1 159 13 0 27 -25
40 -100 53 -39 6 -68 14 -65 18 3 3 -4 24 -15 47 -28 52 -58 61 -215 61 -125
0 -192 12 -201 35 -11 28 -68 39 -196 40 -95 0 -129 3 -133 13 -11 29 -73 42
-205 42 -72 0 -140 5 -150 10 -23 13 -239 19 -295 9z m1378 -266 c-7 -2 -21
-2 -30 0 -10 3 -4 5 12 5 17 0 24 -2 18 -5z"/>
<path d="M1360 2211 c0 -16 8 -35 17 -42 15 -13 16 -11 10 20 -4 18 -7 37 -7
42 0 5 -4 9 -10 9 -5 0 -10 -13 -10 -29z"/>
<path d="M992 1990 c2 -176 -2 -197 -47 -226 -36 -23 -58 -11 -113 64 -67 91
-83 125 -89 191 -6 76 -11 90 -23 71 -30 -47 7 -174 76 -264 44 -56 45 -60 28
-73 -10 -7 -32 -13 -48 -14 -17 0 -40 -4 -51 -9 -11 -4 15 -6 62 -3 78 6 82 5
108 -21 22 -22 26 -33 20 -59 -15 -73 -11 -85 76 -227 23 -38 39 -77 39 -96 0
-53 -29 -132 -74 -197 l-43 -63 4 -100 c3 -58 1 -110 -6 -126 -22 -58 -156
-109 -291 -113 -58 -1 -113 -10 -172 -28 -47 -14 -113 -29 -147 -33 -34 -3
-61 -10 -61 -13 0 -4 48 -8 107 -8 60 -1 198 -4 308 -8 387 -14 838 -10 980 9
72 10 174 20 228 23 109 6 134 24 30 21 -38 0 -112 5 -166 12 -76 10 -121 10
-205 1 -178 -19 -270 -18 -322 6 -59 27 -101 72 -101 109 -1 37 55 234 80 282
10 20 26 73 36 117 9 44 26 103 37 130 29 74 34 143 14 202 -29 87 -1 118 139
154 39 10 90 19 115 19 36 1 41 3 24 10 -37 15 -36 28 4 87 41 61 92 152 92
165 0 21 -18 2 -54 -52 -37 -59 -68 -79 -100 -67 -8 3 -22 31 -33 63 -11 32
-25 60 -33 62 -22 8 -5 -49 34 -114 20 -33 36 -67 36 -76 0 -34 -44 -66 -120
-88 -151 -44 -196 -90 -170 -179 29 -101 23 -151 -20 -151 -23 0 -158 107
-190 151 -35 48 -36 170 -1 246 13 29 31 55 40 58 9 3 43 27 75 54 74 63 94
66 163 29 30 -16 57 -27 60 -25 2 3 -14 20 -36 38 -46 36 -48 44 -23 72 17 19
16 19 -23 -1 -22 -11 -78 -47 -125 -80 -62 -45 -87 -58 -97 -51 -9 8 -12 45
-10 134 1 89 -2 127 -11 136 -10 11 -12 -19 -10 -151z"/>
<path d="M1789 1793 c-13 -16 -12 -17 4 -4 9 7 17 15 17 17 0 8 -8 3 -21 -13z"/>
<path d="M1670 1775 c-19 -14 -41 -25 -49 -25 -8 0 -12 -2 -9 -5 2 -3 36 3 73
12 38 9 62 19 54 21 -8 3 -19 8 -25 13 -6 5 -24 -1 -44 -16z"/>
<path d="M1839 1700 c-125 -16 -191 -75 -232 -204 -18 -61 -22 -94 -22 -236 0
-176 10 -240 50 -320 46 -90 104 -121 245 -128 97 -5 259 11 292 29 14 8 18
22 18 72 l0 62 -153 -4 c-190 -4 -217 4 -249 76 -17 38 -22 75 -26 170 -5 143
9 233 44 279 40 54 143 65 342 38 l42 -6 0 65 c0 36 -4 68 -9 71 -39 25 -257
48 -342 36z"/>
<path d="M2310 1690 c0 -6 59 -143 130 -307 l130 -296 0 -133 0 -134 90 0 90
0 0 133 1 132 133 305 134 305 -86 3 c-60 2 -88 -1 -93 -10 -4 -7 -45 -104
-90 -216 -75 -187 -83 -202 -94 -181 -7 13 -47 111 -90 217 l-78 192 -88 0
c-53 0 -89 -4 -89 -10z"/>
<path d="M3170 1261 l0 -441 90 0 90 0 0 139 0 139 138 -5 c129 -4 139 -3 181
19 96 50 137 151 129 318 -6 109 -26 168 -70 205 -65 55 -86 59 -330 63 l-228
4 0 -441z m395 269 c77 -29 73 -238 -5 -277 -15 -7 -64 -13 -117 -13 l-93 0 0
150 0 150 94 0 c52 0 106 -4 121 -10z"/>
<path d="M3967 1693 c-4 -3 -7 -201 -7 -440 l0 -433 90 0 90 0 0 160 0 161 76
-3 76 -3 68 -155 68 -155 91 -3 c50 -1 91 -1 91 2 0 2 -32 71 -71 152 -99 208
-95 186 -44 222 71 50 90 97 90 222 0 86 -4 113 -22 152 -26 57 -86 103 -154
117 -54 12 -431 15 -442 4z m400 -173 c36 -22 49 -63 40 -137 -3 -31 -13 -54
-31 -72 -25 -25 -32 -26 -129 -26 l-102 0 -3 128 -3 127 98 0 c79 0 104 -4
130 -20z"/>
<path d="M4914 1691 c-49 -13 -103 -50 -122 -84 -15 -28 -17 -71 -20 -344 -3
-291 -2 -316 16 -356 16 -35 30 -49 68 -68 47 -23 58 -24 239 -23 105 0 207 4
228 8 l37 7 0 74 0 75 -189 0 c-227 0 -221 -3 -221 122 l0 78 173 2 172 3 0
70 0 70 -172 3 -173 2 0 84 c0 119 -7 116 223 116 l187 0 0 74 0 74 -37 6
c-68 10 -377 15 -409 7z"/>
<path d="M5661 1683 c-59 -21 -114 -78 -130 -136 -21 -74 -11 -222 18 -274 39
-69 98 -94 244 -102 109 -7 121 -9 138 -30 28 -34 25 -103 -5 -138 l-24 -28
-186 0 -186 0 0 -66 c0 -79 -6 -75 127 -90 233 -28 375 5 431 99 25 44 27 55
27 157 0 95 -3 116 -22 152 -43 79 -122 113 -263 113 -73 0 -92 3 -114 21 -22
17 -26 28 -26 73 0 30 6 61 15 73 22 31 91 42 243 36 l133 -6 -3 69 -3 69 -65
11 c-98 18 -296 16 -349 -3z"/>
<path d="M6421 1683 c-56 -20 -113 -77 -129 -129 -15 -50 -16 -185 -2 -236 14
-49 53 -94 103 -120 32 -16 69 -22 161 -27 108 -7 120 -9 137 -30 28 -34 25
-103 -5 -138 l-24 -28 -186 0 -186 0 0 -66 c0 -79 -6 -75 127 -90 233 -28 375
5 431 99 25 44 27 55 27 157 0 95 -3 116 -22 152 -43 79 -122 113 -265 113
-81 0 -91 2 -113 25 -20 19 -25 34 -25 72 0 97 44 115 258 106 l133 -6 -3 69
-3 69 -65 11 c-98 18 -296 16 -349 -3z"/>
<path d="M5551 691 c-13 -3 -34 -19 -45 -34 -18 -25 -21 -43 -21 -132 0 -96 2
-105 24 -129 20 -21 34 -26 72 -26 26 0 59 4 73 10 17 6 26 6 26 0 0 -6 7 -10
15 -10 12 0 15 16 15 85 l0 85 -55 0 c-42 0 -55 -3 -55 -15 0 -11 11 -15 40
-15 l40 0 0 -45 c0 -40 -3 -47 -26 -55 -44 -17 -99 -12 -120 11 -26 29 -27
172 -1 212 16 25 22 27 92 27 45 0 75 4 75 10 0 6 -6 12 -12 15 -29 8 -115 13
-137 6z"/>
<path d="M2426 674 c-13 -12 -16 -41 -16 -148 0 -89 4 -136 12 -144 8 -8 45
-12 100 -12 72 0 88 3 88 15 0 12 -15 15 -73 15 -43 0 -78 5 -85 12 -7 7 -12
31 -12 55 0 41 2 43 29 43 49 0 121 12 121 21 0 4 -33 9 -72 11 l-73 3 -3 43
c-5 63 7 72 94 72 59 0 74 3 74 15 0 22 -162 22 -184 -1z"/>
<path d="M3320 670 c0 -13 7 -20 20 -20 13 0 20 7 20 20 0 13 -7 20 -20 20
-13 0 -20 -7 -20 -20z"/>
<path d="M4570 670 c0 -13 7 -20 20 -20 13 0 20 7 20 20 0 13 -7 20 -20 20
-13 0 -20 -7 -20 -20z"/>
<path d="M2783 595 c-19 -8 -35 -10 -38 -4 -4 5 -13 9 -21 9 -11 0 -14 -22
-14 -115 0 -108 1 -115 20 -115 19 0 20 7 20 95 l0 94 40 11 c28 8 46 8 60 0
18 -10 20 -21 20 -105 0 -88 1 -95 20 -95 19 0 20 7 20 95 0 88 -2 98 -25 120
-27 28 -55 31 -102 10z"/>
<path d="M3533 595 c-18 -8 -33 -10 -33 -5 0 6 -7 10 -15 10 -12 0 -15 -19
-15 -115 0 -96 3 -115 15 -115 12 0 15 17 15 89 0 96 4 104 57 115 25 6 36 3
52 -13 18 -18 21 -33 21 -106 0 -69 3 -85 15 -85 12 0 15 18 15 99 0 96 -1
100 -26 120 -31 24 -56 26 -101 6z"/>
<path d="M3825 603 c-32 -8 -44 -23 -56 -66 -14 -51 -3 -123 22 -148 15 -15
33 -19 89 -19 40 0 70 4 70 10 0 6 -25 10 -55 10 -60 0 -95 22 -95 60 0 17 7
20 49 20 27 0 61 4 75 10 23 8 26 15 26 54 0 24 -6 48 -13 54 -16 13 -84 23
-112 15z m83 -35 c7 -7 12 -24 12 -39 0 -30 -19 -39 -82 -39 -35 0 -38 2 -38
29 0 16 7 37 16 45 18 19 75 21 92 4z"/>
<path d="M4099 599 c-35 -13 -49 -48 -49 -118 0 -44 5 -65 21 -85 19 -24 27
-26 90 -26 85 0 91 16 9 22 -66 5 -74 10 -84 51 l-6 27 58 0 c73 0 102 18 102
64 0 20 -8 40 -19 50 -24 21 -86 29 -122 15z m95 -35 c40 -39 1 -78 -73 -72
-33 3 -36 5 -33 33 2 16 8 35 14 42 15 18 73 16 92 -3z"/>
<path d="M4417 591 c-32 -16 -39 -17 -44 -5 -3 8 -11 14 -19 14 -11 0 -14 -23
-14 -115 0 -108 1 -115 20 -115 18 0 20 7 20 84 0 76 2 86 22 100 12 9 35 16
50 16 21 0 28 5 28 20 0 25 -16 25 -63 1z"/>
<path d="M4783 595 c-18 -8 -33 -10 -33 -5 0 6 -9 10 -20 10 -19 0 -20 -7 -20
-115 0 -108 1 -115 20 -115 19 0 20 7 20 95 l0 94 38 10 c49 14 49 14 72 -9
17 -17 20 -33 20 -105 0 -69 3 -85 15 -85 12 0 15 18 15 99 0 96 -1 100 -26
120 -31 24 -56 26 -101 6z"/>
<path d="M5904 600 c-12 -5 -25 -13 -29 -19 -9 -16 -25 -13 -25 4 0 8 -7 15
-15 15 -12 0 -15 -19 -15 -115 0 -108 1 -115 20 -115 18 0 20 7 20 84 0 76 2
86 22 100 12 9 35 16 50 16 21 0 28 5 28 20 0 22 -19 25 -56 10z"/>
<path d="M6090 598 c-38 -20 -51 -55 -47 -125 4 -85 21 -103 99 -103 70 0 94
18 103 82 7 49 -7 119 -29 137 -21 18 -98 23 -126 9z m100 -38 c24 -24 28
-115 6 -145 -17 -23 -80 -26 -100 -4 -24 24 -24 129 0 153 22 22 70 20 94 -4z"/>
<path d="M6723 595 c-18 -8 -33 -10 -33 -5 0 6 -9 10 -20 10 -20 0 -20 -5 -18
-167 3 -151 5 -168 21 -171 15 -3 17 5 17 58 l0 62 33 -8 c52 -12 80 -6 105
21 18 21 22 38 22 91 0 59 -3 68 -29 95 -33 32 -51 35 -98 14z m76 -41 c13
-17 21 -41 21 -66 0 -73 -33 -104 -94 -87 l-36 10 0 73 c0 66 2 74 23 84 37
18 64 13 86 -14z"/>
<path d="M3031 574 c-25 -32 -26 -49 -6 -88 11 -21 12 -32 4 -42 -6 -7 -9 -23
-8 -36 2 -13 -2 -33 -9 -45 -19 -34 -14 -70 10 -87 15 -11 46 -16 95 -16 86 0
113 18 113 73 0 51 -24 67 -104 67 -52 0 -68 4 -73 16 -8 23 14 34 70 34 73 0
108 51 77 111 -9 16 -7 19 10 19 11 0 20 5 20 10 0 6 -36 10 -89 10 -85 0 -91
-1 -110 -26z m129 -14 c23 -23 24 -33 10 -60 -13 -23 -59 -34 -93 -21 -22 9
-27 17 -27 45 0 55 69 77 110 36z m30 -195 c15 -9 12 -51 -4 -64 -7 -6 -33
-13 -57 -16 -56 -7 -94 11 -94 45 0 34 38 52 98 46 26 -3 52 -8 57 -11z"/>
<path d="M3320 485 c0 -108 1 -115 20 -115 19 0 20 7 20 115 0 108 -1 115 -20
115 -19 0 -20 -7 -20 -115z"/>
<path d="M4570 485 c0 -96 3 -115 15 -115 12 0 15 19 15 115 0 96 -3 115 -15
115 -12 0 -15 -19 -15 -115z"/>
<path d="M5037 582 c-21 -23 -22 -86 -2 -105 13 -13 13 -16 0 -27 -18 -15 -20
-60 -3 -60 6 0 2 -10 -10 -23 -27 -29 -28 -61 -2 -87 16 -16 33 -20 94 -20 93
0 121 18 119 76 -2 52 -22 64 -105 64 -54 0 -70 3 -75 16 -8 23 14 34 70 34
73 0 108 51 77 111 -9 16 -7 19 9 19 11 0 23 5 26 10 4 6 -28 10 -88 10 -78 0
-97 -3 -110 -18z m121 -18 c54 -38 -3 -107 -72 -87 -26 7 -32 14 -34 43 -6 56
54 80 106 44z m35 -203 c4 -4 7 -21 5 -37 -4 -34 -41 -48 -105 -39 -64 9 -82
63 -29 86 24 10 115 4 129 -10z"/>
<path d="M6350 501 c0 -77 4 -103 16 -115 18 -18 85 -21 116 -5 14 8 23 8 31
0 6 -6 17 -11 24 -11 10 0 13 27 13 115 0 108 -1 115 -20 115 -19 0 -20 -7
-20 -90 0 -100 -7 -110 -74 -110 -47 0 -56 19 -56 119 0 65 -3 81 -15 81 -12
0 -15 -18 -15 -99z"/>
<path d="M180 102 l0 -89 48 12 c160 42 595 56 1672 56 1152 -1 2374 -21 4018
-67 512 -14 567 -14 616 0 30 9 68 27 85 41 28 24 71 98 71 123 0 10 -172 11
-752 8 -414 -3 -784 -5 -823 -5 -228 0 -1933 0 -1995 0 -41 0 -720 2 -1507 5
l-1433 4 0 -88z"/>
</g>
</svg>
